<svg width="390" height="198" viewBox="0 0 390 198" fill="none" xmlns="http://www.w3.org/2000/svg">
<g filter="url(#filter0_d_1_669)">
<path d="M390 1.52588e-05H0V198H390V1.52588e-05Z" fill="#5256E8"/>
</g>
<path opacity="0.808" d="M361.498 -2.26144C361.498 -2.26144 411.743 3.39265 424.263 25.2632C436.783 47.1338 399.213 59.0466 411.584 85.2093C423.955 111.372 470.584 103.542 473.75 129.912C476.916 156.282 424.263 190.692 424.263 190.692" stroke="#5A69DE" stroke-width="2"/>
<path opacity="0.808" d="M132.226 -18.0846C132.226 -18.0846 199.839 -10.4753 216.688 18.9503C233.537 48.376 182.979 64.4104 199.626 99.618C216.273 134.826 279.015 124.287 283.281 159.774C287.547 195.26 216.689 241.564 216.689 241.564" stroke="#5A69DE" stroke-width="2"/>
<path opacity="0.808" d="M-75.9848 22.0162C-75.9848 22.0162 -8.37189 29.6254 8.47711 59.051C25.3261 88.4767 -25.2319 104.511 -8.5849 139.719C8.0621 174.926 70.8039 164.388 75.0699 199.874C79.3359 235.361 8.47809 281.665 8.47809 281.665" stroke="#5A69DE" stroke-width="2"/>
<path opacity="0.808" d="M193.604 -34.3304C193.604 -34.3304 261.217 -26.7211 278.066 2.70452C294.915 32.1302 244.357 48.1646 261.004 83.3722C277.651 118.58 340.393 108.041 344.659 143.528C348.925 179.014 278.067 225.319 278.067 225.319" stroke="#5A69DE" stroke-width="2"/>
<path opacity="0.808" d="M-14.6068 5.77132C-14.6068 5.77132 53.0061 13.3806 69.8551 42.8062C86.7041 72.2318 36.1461 88.2663 52.7931 123.474C69.4401 158.681 132.182 148.143 136.448 183.629C140.714 219.116 69.8561 265.42 69.8561 265.42" stroke="#5A69DE" stroke-width="2"/>
<path opacity="0.808" d="M264.71 -28.9044C264.71 -28.9044 332.323 -21.2952 349.172 8.13043C366.021 37.5561 315.463 53.5905 332.11 88.7981C348.757 124.006 411.499 113.467 415.765 148.954C420.031 184.44 349.173 230.745 349.173 230.745" stroke="#5A69DE" stroke-width="2"/>
<path opacity="0.808" d="M42.3642 -7.62698C42.3642 -7.62698 109.977 -0.0177463 126.826 29.4079C143.675 58.8335 93.1171 74.868 109.764 110.076C126.411 145.283 189.153 134.745 193.419 170.231C197.685 205.718 126.827 252.022 126.827 252.022" stroke="#5A69DE" stroke-width="2"/>
<path opacity="0.808" d="M353.009 -25.3466C353.009 -25.3466 390.574 3.3962 403.094 25.2632C415.614 47.1302 378.044 59.0466 390.415 85.2093C402.786 111.372 449.415 103.542 452.581 129.912C455.747 156.282 403.094 190.692 403.094 190.692" stroke="#5A69DE" stroke-width="2"/>
<path opacity="0.808" d="M103.741 -9.05916C103.741 -9.05916 171.354 -1.44992 188.203 27.9757C205.052 57.4014 154.494 73.4358 171.141 108.643C187.788 143.851 250.53 133.313 254.796 168.799C259.062 204.285 188.204 250.59 188.204 250.59" stroke="#5A69DE" stroke-width="2"/>
<path opacity="0.808" d="M-104.47 31.0416C-104.47 31.0416 -36.8569 38.6508 -20.0079 68.0765C-3.15893 97.5021 -53.7169 113.537 -37.0699 148.744C-20.4229 183.952 42.3188 173.413 46.5848 208.9C50.8508 244.386 -20.007 290.691 -20.007 290.691" stroke="#5A69DE" stroke-width="2"/>
<path opacity="0.808" d="M385.94 -7.62698C385.94 -7.62698 436.185 -1.97289 448.705 19.8977C461.225 41.7682 423.655 53.6811 436.026 79.8437C448.397 106.006 495.026 98.176 498.192 124.546C501.358 150.917 448.705 185.326 448.705 185.326" stroke="#5A69DE" stroke-width="2"/>
<path opacity="0.808" d="M165.117 -25.3049C165.117 -25.3049 232.73 -17.6957 249.579 11.7299C266.428 41.1556 215.87 57.1901 232.517 92.3977C249.164 127.605 311.906 117.067 316.172 152.553C320.438 188.04 249.58 234.344 249.58 234.344" stroke="#5A69DE" stroke-width="2"/>
<path opacity="0.808" d="M151.24 -17.5838C151.24 -17.5838 218.853 -9.97456 235.702 19.4511C252.551 48.8767 201.993 64.9112 218.64 100.119C235.287 135.326 298.029 124.788 302.295 160.274C306.561 195.761 235.703 242.065 235.703 242.065" stroke="#5A69DE" stroke-width="2"/>
<path opacity="0.808" d="M117.984 -17.5838C117.984 -17.5838 185.597 -9.97456 202.446 19.4511C219.295 48.8767 168.737 64.9112 185.384 100.119C202.031 135.326 264.773 124.788 269.039 160.274C273.305 195.761 202.447 242.065 202.447 242.065" stroke="#5A69DE" stroke-width="2"/>
<path opacity="0.808" d="M179.36 -25.3502C179.36 -25.3502 246.973 -17.741 263.822 11.6847C280.671 41.1103 230.113 57.1448 246.76 92.3524C263.407 127.56 326.149 117.022 330.415 152.508C334.681 187.994 263.823 234.299 263.823 234.299" stroke="#5A69DE" stroke-width="2"/>
<path opacity="0.808" d="M204.36 -40.9771C204.36 -40.9771 271.973 -33.3679 288.822 -3.94223C305.671 25.4834 255.113 41.5179 271.76 76.7255C288.407 111.933 351.149 101.395 355.415 136.881C359.681 172.367 288.823 218.672 288.823 218.672" stroke="#5A69DE" stroke-width="2"/>
<path opacity="0.808" d="M321.905 -25.0092C321.905 -25.0092 363.548 -8.22809 376.068 13.6398C388.588 35.5077 353.603 65.7493 365.974 91.9111C378.345 118.073 424.974 110.243 428.14 136.614C431.306 162.984 378.653 197.394 378.653 197.394" stroke="#5A69DE" stroke-width="2"/>
<path opacity="0.808" d="M70.8492 -9.05916C70.8492 -9.05916 138.462 -1.44992 155.311 27.9757C172.16 57.4014 121.602 73.4358 138.249 108.643C154.896 143.851 217.638 133.313 221.904 168.799C226.17 204.285 155.312 250.59 155.312 250.59" stroke="#5A69DE" stroke-width="2"/>
<path opacity="0.808" d="M-137.362 31.0416C-137.362 31.0416 -69.7489 38.6508 -52.8999 68.0765C-36.0509 97.5021 -86.6089 113.537 -69.9619 148.744C-53.3149 183.952 9.42687 173.413 13.6929 208.9C17.9589 244.386 -52.8989 290.691 -52.8989 290.691" stroke="#5A69DE" stroke-width="2"/>
<path opacity="0.808" d="M222.09 -38.7032C222.09 -38.7032 289.703 -31.094 306.552 -1.66834C323.401 27.7573 272.843 43.7918 289.49 78.9994C306.137 114.207 368.879 103.669 373.145 139.155C377.411 174.641 306.553 220.946 306.553 220.946" stroke="#5A69DE" stroke-width="2"/>
<path opacity="0.808" d="M13.8792 1.39845C13.8792 1.39845 81.4921 9.00769 98.3411 38.4333C115.19 67.859 64.6321 83.8934 81.2791 119.101C97.9261 154.309 160.668 143.77 164.934 179.257C169.2 214.743 98.342 261.047 98.342 261.047" stroke="#5A69DE" stroke-width="2"/>
<path opacity="0.808" d="M283.466 -28.9044C283.466 -28.9044 351.079 -21.2952 367.928 8.13043C384.777 37.5561 334.219 53.5905 350.866 88.7981C367.513 124.006 430.255 113.467 434.521 148.954C438.787 184.44 367.929 230.745 367.929 230.745" stroke="#5A69DE" stroke-width="2"/>
<path opacity="0.808" d="M238.761 -40.9771C238.761 -40.9771 306.374 -33.3679 323.223 -3.94223C340.072 25.4834 289.514 41.5179 306.161 76.7255C322.808 111.933 385.55 101.395 389.816 136.881C394.082 172.367 323.224 218.672 323.224 218.672" stroke="#5A69DE" stroke-width="2"/>
<path opacity="0.808" d="M89.4991 -7.62698C89.4991 -7.62698 157.112 -0.0177463 173.961 29.4079C190.81 58.8335 140.252 74.868 156.899 110.076C173.546 145.283 236.288 134.745 240.554 170.231C244.82 205.718 173.962 252.022 173.962 252.022" stroke="#5A69DE" stroke-width="2"/>
<path opacity="0.808" d="M28.1212 -9.05916C28.1212 -9.05916 95.7341 -1.44992 112.583 27.9757C129.432 57.4014 78.8741 73.4358 95.5211 108.643C112.168 143.851 174.91 133.313 179.176 168.799C183.442 204.285 112.584 250.59 112.584 250.59" stroke="#5A69DE" stroke-width="2"/>
<path opacity="0.808" d="M-0.363831 -2.26144C-0.363831 -2.26144 67.2491 5.34779 84.0981 34.7734C100.947 64.1991 50.3891 80.2335 67.0361 115.441C83.6831 150.649 146.425 140.11 150.691 175.597C154.957 211.083 84.0991 257.388 84.0991 257.388" stroke="#5A69DE" stroke-width="2"/>
<path opacity="0.808" d="M-33.2558 -2.26144C-33.2558 -2.26144 34.3571 5.34779 51.2061 34.7734C68.0551 64.1991 17.4971 80.2335 34.1441 115.441C50.7911 150.649 113.533 140.11 117.799 175.597C122.065 211.083 51.2071 257.388 51.2071 257.388" stroke="#5A69DE" stroke-width="2"/>
<path opacity="0.808" d="M-58.2558 17.2722C-58.2558 17.2722 9.35711 24.8814 26.2061 54.3071C43.0551 83.7327 -7.5029 99.7672 9.1441 134.975C25.7911 170.182 88.5329 159.644 92.7989 195.13C97.0649 230.617 26.2071 276.921 26.2071 276.921" stroke="#5A69DE" stroke-width="2"/>
<defs>
<filter id="filter0_d_1_669" x="-40" y="-24" width="470" height="278" filterUnits="userSpaceOnUse" color-interpolation-filters="sRGB">
<feFlood flood-opacity="0" result="BackgroundImageFix"/>
<feColorMatrix in="SourceAlpha" type="matrix" values="0 0 0 0 0 0 0 0 0 0 0 0 0 0 0 0 0 0 127 0" result="hardAlpha"/>
<feOffset dy="16"/>
<feGaussianBlur stdDeviation="20"/>
<feColorMatrix type="matrix" values="0 0 0 0 0.847059 0 0 0 0 0.847059 0 0 0 0 0.847059 0 0 0 0.2 0"/>
<feBlend mode="normal" in2="BackgroundImageFix" result="effect1_dropShadow_1_669"/>
<feBlend mode="normal" in="SourceGraphic" in2="effect1_dropShadow_1_669" result="shape"/>
</filter>
</defs>
</svg>
